HIERARCHY
ROOT Hips
{
    OFFSET 0.000000 0.000000 0.000000
    CHANNELS 6 Xposition Yposition Zposition Zrotation Xrotation Yrotation
    JOINT Spine
    {
        OFFSET -0.000000 8.603107 0.000000
        CHANNELS 3 Zrotation Xrotation Yrotation
        JOINT Spine1
        {
            OFFSET -0.000000 23.906662 0.000000
            CHANNELS 3 Zrotation Xrotation Yrotation
            JOINT Neck
            {
                OFFSET -0.000000 23.808481 2.164407
                CHANNELS 3 Zrotation Xrotation Yrotation
                JOINT Head
                {
                    OFFSET -0.000000 14.688231 -2.098319
                    CHANNELS 3 Zrotation Xrotation Yrotation
                    End Site
                    {
                        OFFSET -0.000000 26.228985 0.000000
                    }
                }
            }
            JOINT LeftShoulder
            {
                OFFSET 4.178941 22.658146 -0.129871
                CHANNELS 3 Zrotation Xrotation Yrotation
                JOINT LeftArm
                {
                    OFFSET 9.497952 0.000000 0.000000
                    CHANNELS 3 Zrotation Xrotation Yrotation
                    JOINT LeftForeArm
                    {
                        OFFSET 38.855015 0.000000 0.000000
                        CHANNELS 3 Zrotation Xrotation Yrotation
                        JOINT LeftHand
                        {
                            OFFSET 24.940550 0.000000 0.000000
                            CHANNELS 3 Zrotation Xrotation Yrotation
                            End Site
                            {
                                OFFSET 15.737392 0.000000 0.000000
                            }
                        }
                    }
                }
            }
            JOINT RightShoulder
            {
                OFFSET -4.145384 22.658146 -0.129871
                CHANNELS 3 Zrotation Xrotation Yrotation
                JOINT RightArm
                {
                    OFFSET -9.497952 0.000000 0.000000
                    CHANNELS 3 Zrotation Xrotation Yrotation
                    JOINT RightForeArm
                    {
                        OFFSET -38.855015 0.000000 0.000000
                        CHANNELS 3 Zrotation Xrotation Yrotation
                        JOINT RightHand
                        {
                            OFFSET -24.940550 0.000000 0.000000
                            CHANNELS 3 Zrotation Xrotation Yrotation
                            End Site
                            {
                                OFFSET -15.737392 0.000000 0.000000
                            }
                        }
                    }
                }
            }
        }
    }
    JOINT LeftUpLeg
    {
        OFFSET 10.491594 0.000000 0.000000
        CHANNELS 3 Zrotation Xrotation Yrotation
        JOINT LeftLeg
        {
            OFFSET -0.000000 -46.080647 0.000000
            CHANNELS 3 Zrotation Xrotation Yrotation
            JOINT LeftFoot
            {
                OFFSET -0.000000 -50.184704 0.000000
                CHANNELS 3 Zrotation Xrotation Yrotation
                JOINT LeftToeBase
                {
                    OFFSET -0.000000 -6.819536 15.737392
                    CHANNELS 3 Zrotation Xrotation Yrotation
                    End Site
                    {
                        OFFSET -0.000000 0.000000 4.196638
                    }
                }
            }
        }
    }
    JOINT RightUpLeg
    {
        OFFSET -10.491594 0.000000 0.000000
        CHANNELS 3 Zrotation Xrotation Yrotation
        JOINT RightLeg
        {
            OFFSET -0.000000 -46.080647 0.000000
            CHANNELS 3 Zrotation Xrotation Yrotation
            JOINT RightFoot
            {
                OFFSET -0.000000 -50.184704 0.000000
                CHANNELS 3 Zrotation Xrotation Yrotation
                JOINT RightToeBase
                {
                    OFFSET -0.000000 -6.819536 15.737392
                    CHANNELS 3 Zrotation Xrotation Yrotation
                    End Site
                    {
                        OFFSET -0.000000 0.000000 4.196638
                    }
                }
            }
        }
    }
}
MOTION
Frames:    4
Frame Time:    0.008333
-8.442211    103.986313    34.863697    -1.935089    4.949389    89.786377    -0.955627    -6.103078    -3.492156    17.323416    -7.069573    -2.362943    0.516607    19.287987    2.869410    -6.341021    -0.364507    2.075928    28.775887    -16.133461    -23.129812    -6.719551    -3.235842    -45.737968    51.342442    -31.046810    -74.122002    -6.398471    10.274921    10.060030    7.252233    13.769299    -2.788622    37.616947    53.605068    21.979420    -0.042468    -17.700338    9.542259    3.621097    -17.533310    5.429374    -8.947954    -1.530313    -0.878735    -2.854465    9.959376    2.472859    -2.112130    -5.428592    16.140259    0.000000    0.000000    0.000000    -8.722768    1.553793    -1.979933    2.272576    2.170648    -0.220309    1.521898    -4.771183    -10.751957    0.000000    0.000000    0.000000    
-8.454892    104.001640    34.832935    -1.973526    5.029312    89.504051    -1.099042    -6.027280    -3.505196    17.517820    -7.225009    -2.332724    0.638109    19.509050    2.960329    -6.681460    -0.816691    2.099804    28.984098    -16.392582    -23.202003    -6.919441    -2.995167    -46.099361    51.126274    -31.274944    -74.772018    -6.058024    10.416488    9.188039    7.263357    13.893949    -2.645711    37.617138    53.390926    21.871140    -0.028453    -17.665871    9.471068    3.615203    -17.498377    5.490269    -9.043407    -1.569695    -0.888153    -2.869375    9.908452    2.629428    -2.189342    -5.366037    16.215628    0.000000    0.000000    0.000000    -8.830359    1.398064    -1.942554    2.281068    2.242206    -0.145385    1.535529    -4.764796    -10.650476    0.000000    0.000000    0.000000    
-8.447860    104.013512    34.825058    -1.973544    5.073053    89.236671    -1.238982    -5.966702    -3.525055    17.734213    -7.321128    -2.316829    0.988905    19.413692    3.077616    -7.496369    -0.700521    2.117015    29.180746    -16.602234    -23.247679    -7.072543    -2.833138    -46.317249    50.864399    -31.529865    -75.343636    -5.451821    10.421096    8.374454    7.253729    13.963923    -2.520305    37.626217    53.190765    21.775602    0.081931    -17.634001    9.362184    3.621387    -17.472881    5.554636    -9.084275    -1.563570    -0.877680    -2.894259    9.867909    2.752283    -2.268013    -5.341434    16.289265    0.000000    0.000000    0.000000    -8.875737    1.311255    -1.930867    2.263647    2.285041    -0.039757    1.556277    -4.744880    -10.554778    0.000000    0.000000    0.000000    
-8.444239    104.026558    34.824001    -1.988972    5.114590    88.980309    -1.313861    -5.887748    -3.517208    17.821203    -7.508884    -2.270715    0.409713    19.367529    3.192436    -6.690900    -0.652516    2.341941    29.399845    -16.679825    -23.271927    -7.222434    -2.812592    -46.536564    50.707737    -31.746998    -75.693825    -4.682206    10.389044    7.637653    7.307162    14.090837    -2.396380    37.682610    53.048225    21.626072    0.162591    -17.710352    9.279158    3.182241    -17.575891    5.552349    -9.116971    -1.582455    -0.873600    -2.924609    9.844246    2.883734    -2.306502    -5.312951    16.361975    0.000000    0.000000    0.000000    -8.920923    1.221102    -1.847832    2.261226    2.304634    0.007086    1.599835    -4.712808    -10.481242    0.000000    0.000000    0.000000    
